<svg preserveAspectRatio="xMidYMid meet" data-bbox="0 -0.1 193.3 199.4" viewBox="0 -0.1 193.3 199.4" xmlns="http://www.w3.org/2000/svg" data-type="color" role="presentation" aria-hidden="true">
  <g>
    <path fill="#ffffff" d="m58.7 143.7-11.8-9.1-13.5 4.4-18.5-5 6.3 17.6 12.9 8.5 7.2-6.3 17.4-10.1z" data-color="1"></path>
    <path d="M193.1 105.8c.1-2 .2-4 .2-6.1 0-15.4-3.5-29.9-9.7-42.9l-44-25.3 29.7 3.3c-7.1-8.3-15.6-15.5-25.2-21.1l-58.2-1.1L118.4 3c-7.9-2-16.3-3.1-24.8-3.1-16.7.1-32.4 4.2-46.2 11.5L58.1 30 38.3 16.8c-.6.4-1.1.7-1.7 1.1l11.6 21-18.8 15.8-1.9 14.7L0 96.5l15-2.4 7.8 3.1-20.7 15.5 8.7 11.4 26 2.1 13.5-10.7-10-8.5 37.3-2.5 16-17.5-6.2-40.5L113.8 90l-26.6 66.3-.6-39.8L69.8 160l-29.4 23.9c15.4 9.7 33.5 15.3 53 15.4l27.5-61.1-4.4 58.4c12.4-2.9 23.9-8.2 34.1-15.3l-1-73 21.1 54.3c7.7-9.5 13.8-20.4 17.6-32.3l-25.7-52.4 30.5 27.9zM56.9 74.2l-14.3 3L35 86l-4.3 2.8 10.1-19.5-.2-7.3 29.3-.9-13 13.1z" fill="#ffffff" data-color="1"></path>
  </g>
</svg>